<?xml version="1.0" standalone="no"?>
<!DOCTYPE svg PUBLIC "-//W3C//DTD SVG 20010904//EN"
 "http://www.w3.org/TR/2001/REC-SVG-20010904/DTD/svg10.dtd">
<svg version="1.0" xmlns="http://www.w3.org/2000/svg"
 width="1536.000000pt" height="768.000000pt" viewBox="0 0 1536.000000 768.000000"
 preserveAspectRatio="xMidYMid meet">

<g transform="translate(0.000000,768.000000) scale(0.100000,-0.100000)"
fill="#000000" stroke="none">
<path d="M1435 7469 c-235 -22 -461 -95 -617 -200 -320 -215 -494 -555 -574
-1119 -22 -155 -31 -821 -15 -1027 69 -847 377 -1298 987 -1443 121 -29 240
-41 414 -45 l155 -3 76 -198 77 -199 352 -3 c281 -2 351 0 347 10 -66 160
-217 543 -217 552 0 7 28 30 62 52 79 48 206 169 273 259 175 236 280 572 315
1017 17 207 8 875 -14 1028 -51 356 -137 617 -273 823 -57 86 -189 221 -271
276 -121 82 -267 145 -430 186 -150 38 -442 53 -647 34z m442 -109 c645 -85
964 -444 1068 -1199 38 -281 43 -808 9 -1126 -40 -372 -139 -674 -289 -873
-67 -89 -180 -190 -279 -249 -49 -29 -93 -54 -99 -56 -10 -3 67 -210 180 -484
l13 -33 -233 0 -234 0 -77 203 -77 203 -202 0 c-159 1 -227 6 -317 22 -439 79
-700 284 -856 671 -92 226 -139 497 -154 875 -10 246 0 646 19 797 47 365 132
622 269 814 180 254 431 386 827 438 66 9 358 6 432 -3z"/>
<path d="M1483 6816 c-213 -49 -354 -198 -428 -453 -55 -189 -67 -305 -72
-722 -6 -422 3 -567 43 -769 55 -277 162 -449 330 -531 76 -37 187 -63 249
-59 l42 3 -113 295 c-63 162 -117 303 -120 313 -5 16 10 17 218 17 l224 0 89
-227 c122 -313 102 -287 160 -212 167 221 225 553 212 1204 -8 385 -34 583
-97 757 -70 191 -190 319 -350 369 -85 28 -295 35 -387 15z m297 -106 c230
-44 351 -230 407 -625 22 -154 25 -864 5 -1015 -28 -206 -91 -445 -113 -423
-4 4 -40 90 -79 191 l-72 182 -339 0 c-186 0 -339 -2 -339 -4 0 -2 52 -138
115 -301 64 -164 113 -300 111 -302 -11 -11 -120 50 -166 93 -136 127 -200
358 -221 789 -26 553 20 977 129 1192 54 105 179 200 292 222 63 12 207 13
270 1z"/>
<path d="M7986 5565 c-256 -1026 -466 -1867 -466 -1870 0 -3 207 -5 459 -5
l459 0 5 23 c4 12 40 176 81 365 42 189 79 354 82 368 l6 24 399 0 399 0 5
-23 c4 -13 43 -187 89 -388 l82 -364 457 -3 c251 -1 457 0 457 3 0 2 -207 834
-460 1847 -253 1014 -462 1853 -465 1866 l-5 22 -559 0 -559 0 -466 -1865z
m1934 13 c238 -959 436 -1751 438 -1760 4 -17 -17 -18 -340 -18 l-344 0 -83
368 c-45 202 -85 377 -88 390 l-5 22 -487 0 -487 0 -85 -387 -85 -388 -348 -3
-348 -2 6 22 c3 13 200 805 438 1761 l433 1737 475 0 476 0 434 -1742z"/>
<path d="M8955 6508 c-8 -23 -305 -1361 -305 -1375 0 -11 65 -13 360 -13 198
0 360 4 360 8 0 10 -298 1347 -306 1375 -4 13 -16 17 -55 17 -31 0 -51 -5 -54
-12z m171 -776 l111 -497 -225 -3 c-124 -1 -226 -1 -228 1 -2 2 47 229 108
505 62 275 115 499 118 496 2 -3 55 -229 116 -502z"/>
<path d="M3632 5558 l3 -1863 428 -3 427 -2 0 1865 0 1865 -430 0 -430 0 2
-1862z m758 -3 l0 -1755 -325 0 -325 0 0 1755 0 1755 325 0 325 0 0 -1755z"/>
<path d="M5120 5555 l0 -1865 1095 0 1095 0 0 380 0 380 -665 0 -665 0 0 1485
0 1485 -430 0 -430 0 0 -1865z m750 270 l0 -1485 670 0 670 0 0 -270 0 -270
-990 0 -990 0 0 1755 0 1755 320 0 320 0 0 -1485z"/>
<path d="M11350 7238 c-41 -28 -70 -82 -70 -128 0 -48 38 -109 80 -131 33 -18
90 -19 1415 -19 1359 0 1380 0 1413 20 96 59 96 201 0 260 -33 20 -54 20
-1419 20 l-1386 0 -33 -22z m2805 -83 c14 -13 25 -33 25 -45 0 -12 -11 -32
-25 -45 l-24 -25 -1351 0 c-1364 0 -1380 0 -1402 34 -14 21 -8 66 12 86 20 20
33 20 1380 20 l1361 0 24 -25z"/>
<path d="M11378 6913 c-16 -18 -101 -202 -232 -500 -41 -92 -101 -228 -135
-302 -53 -115 -61 -142 -61 -193 0 -102 78 -216 182 -267 97 -47 267 -36 397
25 65 30 247 158 259 182 5 9 60 247 122 529 95 429 112 514 101 527 -12 14
-53 16 -316 16 -275 0 -303 -2 -317 -17z"/>
<path d="M12068 6918 c-22 -17 -244 -1015 -234 -1050 4 -12 51 -61 105 -108
75 -65 113 -90 162 -108 128 -46 290 -37 407 22 42 21 128 87 225 170 l27 24
0 512 c0 333 -4 518 -10 531 -10 18 -25 19 -338 19 -247 0 -332 -3 -344 -12z"/>
<path d="M12800 6915 c-9 -11 -13 -137 -13 -537 -1 -497 0 -522 18 -532 10 -6
55 -41 99 -79 91 -75 153 -109 241 -132 113 -29 261 -13 347 38 21 12 79 58
129 102 l90 80 -5 55 c-8 82 -212 989 -226 1006 -19 22 -662 21 -680 -1z"/>
<path d="M13537 6912 c-16 -17 -10 -47 82 -463 137 -614 129 -580 159 -612 36
-38 159 -121 231 -157 232 -116 466 -59 562 136 43 87 38 132 -31 279 -29 61
-112 245 -185 410 -73 165 -146 327 -162 360 l-28 60 -306 3 c-285 2 -307 1
-322 -16z"/>
<path d="M11790 5809 c-14 -6 -62 -37 -107 -70 -135 -98 -231 -133 -397 -145
-50 -4 -97 -11 -103 -17 -10 -7 -13 -175 -13 -778 l0 -768 -71 0 c-50 0 -81
-5 -107 -19 -35 -18 -37 -21 -40 -75 -3 -55 -2 -57 30 -77 31 -19 50 -20 309
-20 220 0 279 3 288 13 8 10 12 234 13 778 l3 764 490 3 c270 1 500 0 513 -3
l22 -5 0 -763 c0 -580 3 -766 12 -775 8 -8 55 -12 145 -12 l133 0 10 26 c6 14
10 113 10 220 l0 194 510 0 510 0 1 -52 c1 -29 2 -123 3 -208 0 -85 5 -161 9
-167 13 -21 548 -18 587 2 35 18 50 43 50 82 0 63 -57 96 -162 95 l-58 -1 -1
662 c-1 364 -4 714 -8 777 l-6 115 -100 8 c-176 13 -266 45 -398 141 -83 60
-128 86 -148 86 -6 0 -41 -27 -77 -61 -95 -89 -138 -117 -216 -141 -126 -39
-294 -25 -408 33 -20 10 -72 48 -115 85 -124 104 -136 105 -252 7 -103 -87
-192 -129 -303 -143 -174 -21 -294 19 -428 144 -44 42 -86 76 -93 75 -7 0 -23
-5 -37 -10z m1066 -146 c138 -116 268 -160 448 -150 155 8 238 43 359 154 32
29 63 53 68 53 6 0 47 -27 92 -59 45 -32 100 -68 122 -79 70 -35 177 -63 263
-69 l82 -6 0 -766 c0 -583 3 -770 12 -779 7 -7 44 -12 94 -12 45 0 89 -3 98
-6 45 -17 -17 -24 -225 -24 l-229 0 0 190 0 190 -29 32 -29 33 -542 0 -542 0
-29 -33 -29 -32 0 -190 0 -190 -70 0 -70 0 0 751 0 751 -29 29 -29 29 -532 0
c-595 0 -580 2 -599 -68 -7 -24 -11 -291 -11 -764 l0 -728 -229 0 c-208 0
-270 7 -225 24 9 3 53 6 99 6 57 0 86 4 94 13 8 10 12 234 13 778 l3 764 75 6
c41 4 98 12 125 19 73 18 200 81 279 139 38 28 73 51 78 51 6 0 41 -28 78 -63
111 -102 226 -147 380 -147 170 1 294 47 424 160 38 33 73 60 77 60 4 0 42
-30 85 -67z"/>
<path d="M12763 5456 l-28 -24 -3 -486 -3 -485 30 -33 29 -33 652 0 652 0 29
33 29 32 0 481 0 481 -29 29 -29 29 -651 0 -650 0 -28 -24z m1302 -516 l0
-455 -621 -3 -621 -2 -6 127 c-12 231 -8 768 5 781 9 9 157 12 628 10 l615 -3
0 -455z"/>
<path d="M12852 5358 c-9 -9 -12 -116 -12 -419 l0 -408 22 -15 c20 -14 91 -16
578 -16 487 0 558 2 578 16 l22 15 0 408 c0 303 -3 410 -12 419 -17 17 -1159
17 -1176 0z"/>
<path d="M11629 5353 c-12 -13 -14 -143 -14 -755 0 -646 2 -740 15 -748 24
-15 933 -13 948 2 17 17 17 1489 0 1506 -9 9 -128 12 -474 12 -417 0 -463 -2
-475 -17z m881 -753 l0 -680 -405 0 -405 0 0 680 0 680 405 0 405 0 0 -680z"/>
<path d="M12972 4244 c-21 -15 -22 -21 -22 -190 0 -102 4 -183 10 -195 10 -18
26 -19 478 -19 351 0 471 3 480 12 8 8 12 66 12 194 0 178 -1 183 -22 198 -20
14 -81 16 -468 16 -387 0 -448 -2 -468 -16z m868 -199 l0 -125 -400 0 -400 0
0 125 0 125 400 0 400 0 0 -125z"/>
<path d="M810 2719 c-30 -4 -91 -19 -135 -33 -279 -89 -434 -311 -491 -703
-24 -164 -24 -590 0 -756 65 -451 259 -678 631 -738 96 -15 365 -6 455 16 294
71 447 236 496 535 8 47 14 124 14 173 l0 87 -249 0 -248 0 -6 -77 c-12 -150
-53 -233 -137 -275 -63 -32 -215 -32 -275 -1 -91 48 -143 137 -171 293 -25
135 -25 594 -1 727 31 169 74 245 162 289 65 31 150 41 228 24 78 -16 138 -71
161 -150 20 -65 35 -174 36 -247 l0 -53 251 0 252 0 -6 168 c-6 190 -24 280
-82 398 -86 176 -245 280 -487 319 -98 16 -305 18 -398 4z m459 -79 c258 -63
394 -219 436 -499 8 -53 15 -131 15 -173 l0 -78 -190 0 -190 0 0 48 c0 197
-76 346 -198 393 -80 30 -234 25 -306 -10 -105 -51 -162 -140 -199 -307 -19
-90 -21 -128 -21 -409 0 -281 2 -319 21 -409 37 -167 94 -255 199 -307 44 -21
62 -24 169 -24 115 0 122 1 174 30 89 49 143 147 157 279 l7 66 190 0 190 0
-7 -86 c-25 -324 -161 -511 -422 -578 -164 -42 -400 -45 -549 -7 -312 80 -460
299 -505 745 -17 160 -8 589 14 711 70 387 230 568 559 631 103 20 346 11 456
-16z"/>
<path d="M2679 2715 c-245 -46 -407 -167 -508 -377 -93 -195 -121 -361 -121
-733 0 -374 28 -537 122 -735 44 -90 62 -116 132 -185 92 -92 159 -131 291
-171 85 -26 101 -28 285 -28 228 -1 283 10 428 80 212 103 333 294 394 624 19
100 22 153 22 410 0 237 -3 315 -17 395 -25 140 -53 237 -97 331 -91 196 -219
305 -437 370 -76 23 -110 27 -253 30 -115 2 -188 -1 -241 -11z m456 -75 c307
-78 457 -283 511 -695 23 -174 14 -649 -14 -785 -72 -345 -219 -520 -496 -590
-152 -39 -360 -37 -520 5 -166 43 -310 161 -384 315 -44 90 -82 223 -104 355
-17 108 -17 611 0 720 62 386 209 590 485 670 90 26 174 34 312 30 86 -3 157
-11 210 -25z"/>
<path d="M2753 2332 c-179 -64 -248 -234 -260 -643 -14 -475 53 -712 225 -796
52 -26 66 -28 172 -28 102 0 120 3 163 25 102 52 163 149 200 318 19 87 21
128 21 397 0 269 -2 310 -21 397 -37 170 -98 267 -200 318 -66 33 -222 40
-300 12z m238 -58 c72 -21 137 -87 167 -169 42 -116 53 -221 53 -500 0 -279
-11 -384 -53 -500 -48 -130 -155 -194 -302 -182 -167 14 -246 113 -282 351
-21 137 -14 626 10 731 21 92 72 191 118 228 67 54 187 71 289 41z"/>
<path d="M11915 2723 c-372 -58 -568 -271 -647 -703 -19 -101 -21 -153 -22
-415 0 -264 3 -314 22 -415 60 -327 180 -518 391 -623 136 -69 209 -82 436
-81 178 0 196 2 280 28 132 40 199 79 291 171 70 69 89 95 132 185 92 190 124
383 124 735 0 480 -71 734 -256 921 -144 144 -284 194 -556 199 -91 2 -178 1
-195 -2z m395 -77 c41 -9 116 -36 166 -61 202 -99 315 -290 366 -620 8 -49 12
-188 12 -360 0 -373 -23 -522 -111 -705 -79 -164 -218 -280 -389 -325 -226
-59 -493 -39 -669 50 -190 96 -296 266 -352 565 -26 139 -26 691 0 830 52 282
152 452 322 551 61 36 188 77 275 89 89 12 289 5 380 -14z"/>
<path d="M11936 2326 c-135 -57 -205 -181 -236 -417 -12 -96 -12 -512 0 -608
24 -182 69 -291 151 -365 68 -61 130 -80 254 -74 188 8 284 97 335 310 31 130
45 400 31 609 -21 326 -79 467 -219 536 -48 24 -71 28 -157 31 -88 2 -107 0
-159 -22z m280 -62 c56 -27 110 -88 134 -152 47 -125 54 -188 54 -507 0 -319
-7 -382 -54 -507 -25 -68 -92 -140 -148 -160 -20 -7 -77 -13 -127 -13 -72 1
-98 5 -130 22 -134 71 -181 212 -192 573 -6 210 6 400 34 510 45 185 145 266
314 256 45 -2 93 -11 115 -22z"/>
<path d="M4040 1605 l0 -1095 643 2 642 3 0 220 0 220 -392 3 -393 2 0 870 0
870 -250 0 -250 0 0 -1095z m440 155 l0 -870 390 0 390 0 0 -155 0 -155 -580
0 -580 0 0 1025 0 1025 190 0 190 0 0 -870z"/>
<path d="M5570 1605 l0 -1095 645 0 645 0 -2 223 -3 222 -392 3 -393 2 0 870
0 870 -250 0 -250 0 0 -1095z m440 155 l0 -870 390 0 390 0 0 -155 0 -155
-580 0 -580 0 0 1025 0 1025 190 0 190 0 0 -870z"/>
<path d="M7100 1605 l0 -1095 680 0 680 0 0 225 0 225 -425 0 -425 0 0 220 0
220 358 2 357 3 0 220 0 220 -357 3 -358 2 0 200 0 200 425 0 425 0 0 225 0
225 -680 0 -680 0 0 -1095z m1300 870 l0 -155 -427 -2 -428 -3 0 -265 0 -265
358 -3 357 -2 0 -155 0 -155 -360 0 -360 0 0 -290 0 -290 430 0 430 0 0 -155
0 -155 -615 0 -615 0 0 1025 0 1025 615 0 615 0 0 -155z"/>
<path d="M8670 2475 l0 -225 245 0 245 0 0 -870 0 -870 250 0 250 0 0 870 0
870 245 0 245 0 0 225 0 225 -740 0 -740 0 0 -225z m1420 0 l0 -155 -245 0
-245 0 0 -870 0 -870 -190 0 -190 0 0 870 0 870 -245 0 -245 0 0 155 0 155
680 0 680 0 0 -155z"/>
<path d="M10420 1605 l0 -1095 250 0 250 0 0 1095 0 1095 -250 0 -250 0 0
-1095z m440 0 l0 -1025 -190 0 -190 0 0 1025 0 1025 190 0 190 0 0 -1025z"/>
<path d="M13230 1605 l0 -1095 240 0 240 0 -2 600 c-2 329 0 596 3 592 4 -4
146 -274 315 -600 l309 -592 257 0 258 0 0 1095 0 1095 -240 0 -241 0 3 -600
c2 -329 0 -596 -4 -592 -3 4 -144 273 -312 597 l-305 590 -260 3 -261 2 0
-1095z m819 379 c321 -621 334 -645 360 -642 l26 3 -4 643 -4 642 182 0 181 0
0 -1025 0 -1025 -211 2 -211 3 -333 640 c-321 616 -335 640 -362 640 l-28 0 4
-643 4 -642 -177 0 -176 0 0 1025 0 1025 208 0 207 0 334 -646z"/>
</g>
</svg>
